<svg xmlns="http://www.w3.org/2000/svg" width="1200" height="660" viewBox="0 0 1200 660" role="img" aria-labelledby="title desc">
  <title id="title">WeRelay 与手机、Relay、电脑 Agent 的关系</title>
  <desc id="desc">微信、局域网网页和公网网页通过 WeRelay 连接电脑上的真实 Agent；任务在电脑，手机只是入口。</desc>
  <rect width="1200" height="660" rx="28" fill="#fafafa"/>
  <g fill="none" stroke="#111827" stroke-width="7" stroke-linecap="round" stroke-linejoin="round">
    <rect x="42" y="72" width="250" height="430" rx="42" fill="#fff"/>
    <path d="M122 72h90l-10 24h-70z" fill="#111827"/>
    <path d="M132 476h70"/>
    <rect x="72" y="128" width="190" height="78" rx="18" stroke="#16a34a"/>
    <rect x="72" y="238" width="190" height="78" rx="18" stroke="#2563eb"/>
    <rect x="72" y="348" width="190" height="78" rx="18" stroke="#f97316"/>

    <rect x="418" y="180" width="278" height="126" rx="26" fill="#fff"/>
    <path d="M518 380c-28 0-51-18-51-41 0-20 18-37 42-40 10-29 42-50 80-50 44 0 80 29 84 65 26 4 45 22 45 44 0 25-26 45-58 45H518z" fill="#fff"/>

    <rect x="844" y="118" width="286" height="230" rx="18" fill="#fff"/>
    <path d="M812 392h350l-42-44H854z" fill="#fff"/>
    <path d="M943 392h86l-12 18h-62z"/>
    <circle cx="987" cy="205" r="42"/>
    <path d="M972 204h1M1001 204h1M972 225c9 10 21 10 30 0"/>

    <path d="M292 166h110" stroke="#16a34a"/>
    <path d="M385 150l17 16-17 16" stroke="#16a34a"/>
    <path d="M402 268H292" stroke="#2563eb"/>
    <path d="M309 252l-17 16 17 16" stroke="#2563eb"/>
    <path d="M292 388h126" stroke="#f97316"/>
    <path d="M401 372l17 16-17 16" stroke="#f97316"/>
    <path d="M696 242h128"/>
    <path d="M807 226l17 16-17 16"/>
    <path d="M560 306v47" stroke="#f97316"/>
    <path d="M544 336l16 17 16-17" stroke="#f97316"/>
  </g>

  <g font-family="-apple-system,BlinkMacSystemFont,'Segoe UI','PingFang SC','Microsoft YaHei',sans-serif" fill="#111827" text-anchor="middle">
    <text x="167" y="180" font-size="31" font-weight="700">微信</text>
    <text x="167" y="290" font-size="27" font-weight="700">局域网网页</text>
    <text x="167" y="400" font-size="27" font-weight="700">公网网页</text>
    <text x="557" y="258" font-size="54" font-weight="750">WeRelay</text>
    <text x="591" y="371" font-size="34" font-weight="700">Relay</text>
    <text x="987" y="458" font-size="40" font-weight="750">电脑 Agent</text>
    <text x="600" y="590" font-size="50" font-weight="750">任务在电脑，手机只是入口</text>
  </g>
</svg>
